# Mesh exported from geometry-central
#  vertices: 8
#     faces: 12

v -6.6965326396100895e-17 -0.014894934578492725 -0.91813832246153071
v -6.6965326396100895e-17 0.71032212855492638 0.33797447740143749
v 0.40195609595614984 -0.24696439478118687 0.053255576099164689
v 0.25122255997259368 -0.37750346614520236 0.33797447740143738
v 0.35171158396163105 -0.11642532341717136 0.21236319741514059
v -0.40195609595614978 -0.24696439478118715 0.053255576099164689
v -0.25122255997259346 -0.37750346614520253 0.33797447740143738
v -0.35171158396163105 -0.11642532341717163 0.21236319741514059
f 1 4 7
f 1 3 4
f 1 7 6
f 1 2 3
f 1 6 2
f 2 4 5
f 2 8 7
f 2 7 4
f 6 7 8
f 3 5 4
f 2 5 3
f 2 6 8
